<svg width="15" height="15" viewBox="0 0 15 15" fill="none" xmlns="http://www.w3.org/2000/svg">
  <path d="M6.12247 2.31494L10.81 7.00244C10.8755 7.06776 10.9275 7.14538 10.963 7.23085C10.9985 7.31632 11.0168 7.40795 11.0168 7.50049C11.0168 7.59303 10.9985 7.68466 10.963 7.77013C10.9275 7.85559 10.8755 7.93321 10.81 7.99854L6.12247 12.686C5.99038 12.8181 5.81123 12.8923 5.62443 12.8923C5.43762 12.8923 5.25847 12.8181 5.12638 12.686C4.99429 12.5539 4.92008 12.3748 4.92008 12.188C4.92008 12.0012 4.99429 11.822 5.12638 11.6899L9.31642 7.4999L5.12579 3.30987C4.9937 3.17777 4.91949 2.99862 4.91949 2.81182C4.91949 2.62501 4.9937 2.44586 5.12579 2.31377C5.25788 2.18168 5.43704 2.10747 5.62384 2.10747C5.81064 2.10747 5.9898 2.18168 6.12189 2.31377L6.12247 2.31494Z" fill="#1f1f1f" />
</svg>